<?xml version="1.0" encoding="UTF-8"?>
<svg xmlns="http://www.w3.org/2000/svg" version="1.1" width="500" height="500" viewBox="0 0 500 500"><rect x="0" y="0" width="500" height="500" fill="#ffffff"/><g transform="scale(17.241)"><g transform="translate(0,0)"><path fill-rule="evenodd" d="M8 0L8 2L9 2L9 3L8 3L8 4L9 4L9 6L8 6L8 8L5 8L5 9L4 9L4 8L2 8L2 9L3 9L3 10L2 10L2 11L1 11L1 10L0 10L0 11L1 11L1 12L0 12L0 17L1 17L1 18L0 18L0 19L1 19L1 18L2 18L2 17L3 17L3 18L4 18L4 19L2 19L2 20L1 20L1 21L2 21L2 20L3 20L3 21L4 21L4 20L5 20L5 19L7 19L7 18L6 18L6 17L8 17L8 16L10 16L10 15L8 15L8 14L6 14L6 15L8 15L8 16L5 16L5 13L3 13L3 16L2 16L2 15L1 15L1 12L2 12L2 11L4 11L4 12L6 12L6 13L7 13L7 12L6 12L6 11L7 11L7 10L6 10L6 11L4 11L4 10L5 10L5 9L8 9L8 11L10 11L10 12L11 12L11 16L12 16L12 17L13 17L13 16L12 16L12 15L14 15L14 18L13 18L13 19L12 19L12 18L11 18L11 17L9 17L9 18L8 18L8 20L6 20L6 21L8 21L8 24L10 24L10 22L9 22L9 19L11 19L11 23L12 23L12 24L11 24L11 25L10 25L10 26L9 26L9 25L8 25L8 27L10 27L10 26L11 26L11 27L12 27L12 26L11 26L11 25L12 25L12 24L16 24L16 22L17 22L17 20L18 20L18 24L17 24L17 26L16 26L16 27L15 27L15 26L14 26L14 27L13 27L13 28L10 28L10 29L14 29L14 28L16 28L16 29L17 29L17 28L18 28L18 29L24 29L24 28L21 28L21 27L22 27L22 26L23 26L23 27L25 27L25 29L26 29L26 28L27 28L27 29L28 29L28 28L29 28L29 26L28 26L28 25L29 25L29 24L27 24L27 23L28 23L28 21L29 21L29 20L28 20L28 19L29 19L29 17L28 17L28 16L29 16L29 15L27 15L27 13L25 13L25 12L24 12L24 11L26 11L26 8L25 8L25 10L23 10L23 8L22 8L22 10L20 10L20 9L21 9L21 8L20 8L20 7L21 7L21 6L20 6L20 7L19 7L19 5L20 5L20 4L21 4L21 0L20 0L20 1L19 1L19 2L20 2L20 4L18 4L18 2L17 2L17 1L16 1L16 0L11 0L11 1L9 1L9 0ZM11 1L11 2L10 2L10 3L9 3L9 4L11 4L11 5L10 5L10 6L9 6L9 7L10 7L10 6L11 6L11 7L12 7L12 6L13 6L13 8L11 8L11 9L13 9L13 8L14 8L14 9L15 9L15 7L16 7L16 6L15 6L15 5L16 5L16 4L17 4L17 3L16 3L16 1L14 1L14 2L12 2L12 1ZM11 2L11 4L12 4L12 5L13 5L13 6L14 6L14 7L15 7L15 6L14 6L14 5L15 5L15 4L16 4L16 3L14 3L14 5L13 5L13 4L12 4L12 2ZM17 6L17 7L18 7L18 9L17 9L17 8L16 8L16 10L14 10L14 11L13 11L13 10L12 10L12 11L11 11L11 10L10 10L10 9L9 9L9 8L8 8L8 9L9 9L9 10L10 10L10 11L11 11L11 12L12 12L12 11L13 11L13 13L12 13L12 14L14 14L14 15L15 15L15 16L16 16L16 15L15 15L15 14L16 14L16 13L18 13L18 12L19 12L19 13L20 13L20 14L19 14L19 15L17 15L17 18L18 18L18 20L19 20L19 19L20 19L20 20L22 20L22 19L23 19L23 20L25 20L25 22L26 22L26 23L27 23L27 21L28 21L28 20L27 20L27 21L26 21L26 19L25 19L25 18L27 18L27 19L28 19L28 17L26 17L26 16L27 16L27 15L26 15L26 14L25 14L25 13L22 13L22 12L23 12L23 10L22 10L22 11L21 11L21 12L20 12L20 10L19 10L19 7L18 7L18 6ZM0 8L0 9L1 9L1 8ZM27 8L27 12L28 12L28 9L29 9L29 8ZM16 10L16 12L14 12L14 14L15 14L15 13L16 13L16 12L17 12L17 10ZM18 10L18 11L19 11L19 10ZM8 12L8 13L9 13L9 14L10 14L10 13L9 13L9 12ZM21 14L21 16L20 16L20 15L19 15L19 16L20 16L20 17L21 17L21 18L23 18L23 19L24 19L24 16L25 16L25 14L24 14L24 15L23 15L23 14ZM1 16L1 17L2 17L2 16ZM3 16L3 17L4 17L4 18L5 18L5 16ZM22 16L22 17L23 17L23 16ZM15 17L15 18L16 18L16 17ZM15 19L15 21L13 21L13 20L12 20L12 22L13 22L13 23L14 23L14 22L15 22L15 21L16 21L16 20L17 20L17 19ZM21 21L21 24L24 24L24 21ZM19 22L19 26L18 26L18 27L21 27L21 25L20 25L20 22ZM22 22L22 23L23 23L23 22ZM25 24L25 26L26 26L26 24ZM23 25L23 26L24 26L24 25ZM27 26L27 28L28 28L28 26ZM16 27L16 28L17 28L17 27ZM8 28L8 29L9 29L9 28ZM0 0L7 0L7 7L0 7ZM1 1L1 6L6 6L6 1ZM2 2L5 2L5 5L2 5ZM22 0L29 0L29 7L22 7ZM23 1L23 6L28 6L28 1ZM24 2L27 2L27 5L24 5ZM0 22L7 22L7 29L0 29ZM1 23L1 28L6 28L6 23ZM2 24L5 24L5 27L2 27Z" fill="#000000"/></g></g></svg>
